<?xml version="1.0" encoding="UTF-8" standalone="no"?>
<svg
   xmlns:dc="http://purl.org/dc/elements/1.1/"
   xmlns:cc="http://creativecommons.org/ns#"
   xmlns:rdf="http://www.w3.org/1999/02/22-rdf-syntax-ns#"
   xmlns:svg="http://www.w3.org/2000/svg"
   xmlns="http://www.w3.org/2000/svg"
   version="1.1"
   id="svg98"
   width="440.03253"
   height="207.52625"
   viewBox="0 0 440.03253 207.52625">
  <metadata
     id="metadata104">
    <rdf:RDF>
      <cc:Work
         rdf:about="">
        <dc:format>image/svg+xml</dc:format>
        <dc:type
           rdf:resource="http://purl.org/dc/dcmitype/StillImage" />
        <dc:title></dc:title>
      </cc:Work>
    </rdf:RDF>
  </metadata>
  <defs
     id="defs102" />
  <g
     id="g106"
     transform="translate(-92.047316,-208.90784)">
    <g
       id="g171"
       transform="translate(9.7773737,5.1603991)">
      <path
         style="fill:#000000"
         d="m 467.90109,410.19365 c -17.95888,-6.40216 -16.24567,-30.52446 2.52691,-35.5794 4.36579,-1.17558 10.25006,-5.92235 12.33173,-9.94785 1.44246,-2.78943 3.18146,-13.00794 2.2137,-13.00794 -0.30144,0 -3.39691,0.73219 -6.87883,1.62709 -44.47047,11.42949 -83.71263,-37.60559 -63.32442,-79.12709 22.80024,-46.43368 94.11529,-38.63066 105.95387,11.59307 1.76076,7.46982 2.18992,68.62955 0.56069,79.90406 -3.68411,25.49457 -34.55507,51.25025 -53.38365,44.53806 z m 6.36274,-94.07956 c 17.52562,-8.95262 11.21193,-35.61241 -8.47405,-35.78202 -22.8367,-0.19674 -26.37175,32.07356 -4.09531,37.38467 3.64197,0.86831 9.09273,0.17332 12.56936,-1.60265 z M 90.501477,350.08496 c -11.10174,-6.65369 -10.94106,-23.78286 0.28273,-30.13967 11.827853,-6.69892 26.479623,1.80654 26.479623,15.37161 0,13.38785 -15.13246,21.73828 -26.762353,14.76806 z m 75.262353,0.70691 c -18.89542,-5.42963 -34.8462,-21.98688 -39.62675,-41.13341 -1.52208,-6.09607 -2.05727,-88.05573 -0.6088,-93.23166 3.45394,-12.3422 20.63472,-16.88648 30.07483,-7.95472 5.14967,4.87236 5.96366,7.64659 6.4639,22.03027 l 0.46409,13.34388 3.11636,-0.63976 c 34.33277,-7.04821 64.02423,10.92959 71.18134,43.0994 8.86356,39.84003 -30.98792,76.00219 -71.06497,64.486 z m 24.89398,-36.99619 c 16.76157,-9.48257 10.25842,-35.42293 -8.88039,-35.42293 -23.03427,0 -26.46264,31.90233 -4.01359,37.34804 3.88009,0.94123 9.24259,0.14059 12.89398,-1.92511 z m 67.04239,37.84788 c -4.30271,-1.32818 -10.26327,-7.62854 -11.47522,-12.12938 -0.6571,-2.44026 -0.92156,-25.14651 -0.74133,-63.64864 l 0.28018,-59.85504 2.68402,-4.05487 c 7.8624,-11.87811 26.04519,-10.6239 31.93525,2.20283 3.06567,6.67609 2.84973,121.86686 -0.24042,128.25026 -3.73109,7.70741 -13.87221,11.88038 -22.44248,9.23484 z"
         id="path162" />
      <path
         id="path164"
         style="fill:#9ed5cb;fill-opacity:1;fill-rule:evenodd"
         d="m 345.88208,243.663 a 55.533646,55.533646 0 0 0 -55.40429,55.5332 55.533646,55.533646 0 0 0 11.88672,34.33789 l -10.13477,22.77148 26.23047,-8.89257 a 55.533646,55.533646 0 0 0 27.55078,7.3164 55.533646,55.533646 0 0 0 55.5332,-55.5332 55.533646,55.533646 0 0 0 -55.5332,-55.5332 55.533646,55.533646 0 0 0 -0.12891,0 z" />
    </g>
  </g>
</svg>
